<?xml version="1.0" encoding="iso-8859-1"?>
<!-- Generator: Adobe Illustrator 19.0.0, SVG Export Plug-In . SVG Version: 6.00 Build 0)  -->
<svg version="1.1" id="Capa_1" xmlns="http://www.w3.org/2000/svg" xmlns:xlink="http://www.w3.org/1999/xlink" x="0px" y="0px"
	 viewBox="0 0 512 512" style="enable-background:new 0 0 512 512;" xml:space="preserve">
<g>
	<g>
		<path d="M447.433,154.65C455.128,71.452,389.465,0,306.585,0c-44.391,0-85.729,20.633-112.441,55.654
			c-63.057-7.76-119.312,37.336-127.162,98.698C29.383,158.368,0,190.297,0,228.962c0,41.375,33.645,75.036,75,75.036h362
			c41.355,0,75-33.661,75-75.036C512,191.128,483.868,159.744,447.433,154.65z"/>
	</g>
</g>
<g>
	<g>
		<path d="M269.797,324.884c-7.781-2.834-16.392,1.18-19.226,8.965L202.22,466.691c-2.833,7.785,1.181,16.392,8.966,19.225
			c7.78,2.833,16.392-1.179,19.226-8.965l48.351-132.842C281.596,336.324,277.582,327.717,269.797,324.884z"/>
	</g>
</g>
<g>
	<g>
		<path d="M191.465,324.884c-7.784-2.836-16.393,1.18-19.226,8.965l-17.334,47.624c-2.833,7.785,1.181,16.392,8.966,19.225
			c7.78,2.833,16.392-1.179,19.226-8.965l17.334-47.624C203.264,336.324,199.25,327.717,191.465,324.884z"/>
	</g>
</g>
<g>
	<g>
		<path d="M311.025,426.824c-7.785-2.835-16.392,1.18-19.226,8.965l-20.41,56.077c-2.833,7.785,1.181,16.392,8.966,19.225
			c7.777,2.832,16.39-1.175,19.226-8.965l20.41-56.077C322.824,438.265,318.811,429.657,311.025,426.824z"/>
	</g>
</g>
<g>
	<g>
		<path d="M348.129,324.884c-7.781-2.834-16.392,1.18-19.226,8.965l-16.693,45.864c-2.833,7.785,1.181,16.392,8.966,19.225
			c7.78,2.833,16.392-1.179,19.226-8.965l16.693-45.864C359.928,336.324,355.914,327.717,348.129,324.884z"/>
	</g>
</g>
<g>
</g>
<g>
</g>
<g>
</g>
<g>
</g>
<g>
</g>
<g>
</g>
<g>
</g>
<g>
</g>
<g>
</g>
<g>
</g>
<g>
</g>
<g>
</g>
<g>
</g>
<g>
</g>
<g>
</g>
</svg>
