<?xml version="1.0" encoding="iso-8859-1"?>
<!-- Generator: Adobe Illustrator 21.0.0, SVG Export Plug-In . SVG Version: 6.00 Build 0)  -->
<svg xmlns="http://www.w3.org/2000/svg" xmlns:xlink="http://www.w3.org/1999/xlink" version="1.1" id="Capa_1" x="0px" y="0px" viewBox="0 0 512 512" style="enable-background:new 0 0 512 512;" xml:space="preserve" width="512" height="512">
<g>
	<path style="fill:#E0F3FC;" d="M241.011,407c0,31.199-13.801,60.3-37.5,80.4c-18.9,15.899-42.9,24.6-67.8,24.6   c-6,0-12.299-0.601-18.3-1.5C74.811,503,40.01,468.199,32.51,425.6c-5.7-33.6,4.801-67.5,28.5-91.5V75c0-41.4,33.3-74.7,74.7-75   h0.3c41.4,0,75,33.6,75,75v15l-21.301,16.199L211.011,120v31l-17.999,19.499L211.011,181v30l-16.199,8.699L211.011,241v30   l-16.8,16.8l16.8,13.2v33.1C230.211,353.599,241.011,379.999,241.011,407z"/>
	<path style="fill:#BDD9F1;" d="M241.011,407c0,31.199-13.801,60.3-37.5,80.4c-18.9,15.899-42.9,24.6-67.8,24.6V0h0.3   c41.4,0,75,33.6,75,75v15l-21.301,16.199L211.011,120v31l-17.999,19.499L211.011,181v30l-16.199,8.699L211.011,241v30l-16.8,16.8   l16.8,13.2v33.1C230.211,353.599,241.011,379.999,241.011,407z"/>
	<g>
		<g>
			<path style="fill:#F16523;" d="M151.011,75v302c0,8.399-6.599,15-15,15h-0.3c-8.399-0.3-14.7-6.601-14.7-15V75     c0-8.401,6.301-14.7,14.7-15h0.3C144.411,60,151.011,66.599,151.011,75z"/>
		</g>
	</g>
	<g>
		<g>
			<path style="fill:#F16523;" d="M151.011,364.699c-4.799-1.8-9.6-2.699-15-2.699h-0.3c-5.4,0-9.901,0.899-14.7,2.699     c-17.401,6-30,22.8-30,42.301c0,24.899,19.799,44.7,44.7,45h0.3c24.901,0,45-20.101,45-45     C181.011,387.499,168.411,370.699,151.011,364.699z"/>
		</g>
	</g>
	<g>
		<path style="fill:#F16523;" d="M406.011,151c-8.401,0-15,6.599-15,15v30c0,8.399-6.599,15-15,15s-15-6.601-15-15v-30    c0-57.9-47.1-105-105-105c-6.301,0-11.7,3.9-14.099,9.6c-2.1,5.999-0.601,12.299,4.199,16.5c0,0.3,24.901,23.101,24.901,48.9    c0,8.699-2.999,17.999-8.401,27.9c-14.399,24.6-21.599,49.499-21.599,77.1c0,66.299,53.699,120,120,120s120-53.701,120-120v-15    C481.011,184.6,447.411,151,406.011,151z"/>
	</g>
	<g>
		<path style="fill:#EE3D23;" d="M211.011,90v30h-30c-8.401,0-15-6.601-15-15c0-8.401,6.599-15,15-15H211.011z"/>
	</g>
	<g>
		<path style="fill:#EE3D23;" d="M211.011,151v30h-30c-8.401,0-15-6.601-15-15c0-8.401,6.599-15,15-15H211.011z"/>
	</g>
	<g>
		<path style="fill:#EE3D23;" d="M211.011,211v30h-30c-8.401,0-15-6.601-15-15c0-8.401,6.599-15,15-15H211.011z"/>
	</g>
	<g>
		<path style="fill:#EE3D23;" d="M211.011,271v30h-30c-8.401,0-15-6.601-15-15c0-8.401,6.599-15,15-15H211.011z"/>
	</g>
	<path style="fill:#EE3D23;" d="M481.011,226v15c0,66.299-53.699,120-120,120V196c0,8.399,6.599,15,15,15s15-6.601,15-15v-30   c0-8.401,6.599-15,15-15C447.411,151,481.011,184.6,481.011,226z"/>
	<path style="fill:#EE3D23;" d="M151.011,75v302c0,8.399-6.599,15-15,15h-0.3V60h0.3C144.411,60,151.011,66.599,151.011,75z"/>
	<path style="fill:#EE3D23;" d="M181.011,407c0,24.899-20.099,45-45,45h-0.3v-90h0.3c5.4,0,10.201,0.899,15,2.699   C168.411,370.699,181.011,387.499,181.011,407z"/>
</g>















</svg>
